<?xml version="1.0" encoding="utf-8"?>
<!-- Svg Vector Icons : http://www.onlinewebfonts.com/icon -->
<!DOCTYPE svg PUBLIC "-//W3C//DTD SVG 1.1//EN" "http://www.w3.org/Graphics/SVG/1.1/DTD/svg11.dtd">
<svg version="1.1" xmlns="http://www.w3.org/2000/svg" xmlns:xlink="http://www.w3.org/1999/xlink" x="0px" y="0px" viewBox="0 0 1000 1000" enable-background="new 0 0 1000 1000" xml:space="preserve">
<metadata> Svg Vector Icons : http://www.onlinewebfonts.com/icon </metadata>
<g><g transform="translate(0.000000,511.000000) scale(0.100000,-0.100000)"><path d="M3551,3226.4c-620.6-80.1-1175-362.3-1623.4-824.7c-378.3-390.4-614.5-852.8-720.6-1407.2c-36-188.2-50-694.6-22-832.7l14-72.1l-118.1-44C662.4-112.6,288.1-537,158-1001.4C-96.2-1916.2,512.3-2849,1459.1-2999.2c84.1-12,1215.1-20,3242.9-20c3413,0,3318.9-2,3683.3,120.1c322.3,106.1,574.5,258.2,818.7,490.4c402.3,382.3,622.5,834.7,684.6,1409.2c84.1,774.7-304.3,1587.4-974.9,2041.8c-252.2,170.2-650.6,322.3-918.8,350.3c-258.2,30-270.2,32-270.2,78.1c-2,94.1-62.1,326.3-116.1,442.4c-120.1,254.2-356.3,468.4-634.6,572.5c-148.1,56-448.4,76.1-616.5,40c-64.1-12-188.2-60-276.2-104.1l-160.1-80.1L5753,2503.7c-354.3,340.3-788.7,566.5-1301.1,682.6C4243.6,3234.4,3771.2,3254.4,3551,3226.4z"/></g></g>
</svg>