<?xml version="1.0" encoding="utf-8"?>
<!-- Svg Vector Icons : http://www.onlinewebfonts.com/icon -->
<!DOCTYPE svg PUBLIC "-//W3C//DTD SVG 1.1//EN" "http://www.w3.org/Graphics/SVG/1.1/DTD/svg11.dtd">
<svg version="1.1" xmlns="http://www.w3.org/2000/svg" xmlns:xlink="http://www.w3.org/1999/xlink" x="0px" y="0px" viewBox="0 0 1000 1000" enable-background="new 0 0 1000 1000" xml:space="preserve">
<metadata> Svg Vector Icons : http://www.onlinewebfonts.com/icon </metadata>
<g><path d="M598,550c59.2,44.8,98,115.1,98,195c0,135.3-109.7,245-245,245c-135.3,0-245-109.7-245-245c0-79.9,38.8-150.1,98-195V157c0-81.2,65.9-147,147-147c81.2,0,147,65.8,147,147V550z M549,157c0-54.1-43.9-98-98-98c-54.1,0-98,43.9-98,98v419.6c-58.3,33.9-98,96.1-98,168.4c0,108.2,87.8,196,196,196c108.2,0,196-87.8,196-196c0-72.3-39.7-134.5-98-168.4V157z"/><path d="M304,745c0,81.2,65.8,147,147,147s147-65.8,147-147c0-81.2-65.8-147-147-147S304,663.8,304,745z"/><path d="M403.3,353h95.4v294h-95.4V353z"/><path d="M794,132.5c0,40.6-32.9,73.5-73.5,73.5c-40.6,0-73.5-32.9-73.5-73.5c0-40.6,32.9-73.5,73.5-73.5C761.1,59,794,91.9,794,132.5z M720.5,108c-13.5,0-24.5,11-24.5,24.5s11,24.5,24.5,24.5c13.5,0,24.5-11,24.5-24.5S734,108,720.5,108z"/></g>
</svg>